<svg height="64" viewBox="0 0 128 128" width="64" xmlns="http://www.w3.org/2000/svg" xmlns:xlink="http://www.w3.org/1999/xlink"><linearGradient id="a" gradientUnits="userSpaceOnUse" x1="0" x2="128" y1="128" y2="0"><stop offset="0" stop-color="#333"/><stop offset="1" stop-color="#5d5d5d"/></linearGradient><path d="m64.000002 10.847658c-29.355184.000109-53.152235 23.79716-53.152344 53.152344.000112 29.355182 23.797162 53.152228 53.152344 53.152338 29.355181-.00011 53.152228-23.797157 53.152338-53.152338-.00011-29.355182-23.797156-53.152232-53.152338-53.152344zm27.533203 23.873047c2.159355-.07872 3.794128 1.876009 2.917969 5.388672l-10.53125 49.632813c-.735207 3.5272-2.86777 4.371077-5.820313 2.742187l-16.044921-11.855469c-3.768605 3.664093-7.144432 6.945669-7.712891 7.501953-.893917.873247-1.605929 1.605469-3.210938 1.605469-2.07976 0-1.725837-.787042-2.443359-2.767578l-5.902344-18.09375-15.425781-4.816406c-3.426838-1.049871-3.45177-3.403991.769531-5.097656l61.84961-23.855469c.529657-.240389 1.056374-.3666 1.554687-.384766zm-9.810547 10.556641c-.465094-.0065-1.097161.159953-1.748047.554687l-34.767578 21.935547 5.857422 17.962891 1.160156-12.363281 29.771485-26.861329c.816659-.724929.50172-1.21776-.273438-1.228515z" fill="url(#a)"/></svg>